<?xml version="1.0" encoding="utf-8"?>
<!-- Generator: Adobe Illustrator 23.0.2, SVG Export Plug-In . SVG Version: 6.00 Build 0)  -->
<svg version="1.1" id="Layer_1" xmlns="http://www.w3.org/2000/svg" xmlns:xlink="http://www.w3.org/1999/xlink" x="0px" y="0px"
	 viewBox="0 0 990.4 652.4" style="enable-background:new 0 0 990.4 652.4;" xml:space="preserve">
<style type="text/css">
	.st0{fill:#231F20;}
</style>
<title>damosdesigns_logo_2018_w</title>
<path class="st0" d="M568.2,247.8c-17.2,13.7-33.5,26.6-49.8,39.5c-21.9,17.4-43.8,34.9-65.7,52.3c-9.5,7.5-14.6,7.2-24.9-0.5
	c-36.7-27.6-73.5-55.1-110.3-82.6c-1.2-0.9-2.4-1.6-4.4-3c0,2.6,0,4.5,0,6.4c0.2,77,0.4,154,0.6,231c0.1,2.3,0,4.7-0.3,7
	c-1.1,7.3-6.6,11.5-14.1,10.9c-6.4-0.6-11.3-6.1-11.2-12.5c-0.1-15.5-0.1-31-0.1-46.5c0-1.8,0-3.6,0-5.8c-2-0.1-3.6-0.3-5.2-0.3
	c-61.8-0.2-123.7-0.5-185.5-0.8c-3.8-0.2-7.5,1.2-10.2,3.9c-20.5,19.3-41,38.5-61.7,57.6c-5.2,4.8-11.4,5.9-16.4,3
	c-4.7-2.7-6.4-6.9-6.5-12.1c-0.1-12.7-0.5-25.3-0.6-38C1.5,310.2,0.7,163.1,0,15.9C0,9.7,1,4.4,7.2,1.4C12.8-1.4,17.5,0.3,22,3.8
	C44.4,21,66.8,38.5,89.4,55.4c70.6,52.7,141.2,105.4,211.9,157.9c45.1,33.6,90.4,67,135.5,100.6c3.1,2.3,4.9,1.8,7.6-0.3
	c41.4-33,82.8-66,124.2-99c4.5-3.9,10.3-6,16.3-5.9c127.3,0.2,254.7,0.1,382-0.1c11.2,0,17.2,9.8,14.2,17.1
	c-1.9,4.7-5.1,7.7-10.3,8.3c-2,0.2-4,0.3-6,0.3c-43.7,0-87.3,0.1-131,0.1c-12,0-24-0.4-35.9-0.5c-0.9,0-1.8,0.1-2.7,0.3v119.6h6.5
	c57.3,0,114.7,0.2,172-0.2c11.2-0.1,16.7,6,16.6,16.6c-0.4,41-0.2,82-0.2,123c0,11.4-4.3,15.7-15.6,15.7c-38.3,0-76.7,0-115,0
	c-6.9,0-11.7-4.1-13-10.7c-1.1-5.4,2.2-11.8,7.7-13.7c2.9-0.8,5.9-1.2,8.8-1.1c31.8-0.1,63.7-0.2,95.5,0.1c5,0,6.4-1.1,6.4-6.3
	c-0.3-30.7-0.1-61.3-0.1-92v-5.7H795.4c0,1.9,0,3.7,0,5.4c-0.1,32.3-0.1,64.7-0.2,97c0,2.3-0.1,4.7-0.3,7c-0.9,6.6-5,10.8-11.7,11.8
	c-1.2,0.2-2.3,0.2-3.5,0.2c-64.5,0.4-129,0.7-193.5,1.4c-11.8,0.1-16.2-6.2-16.3-16.3c-0.3-78-1.1-156-1.7-234
	C568.2,251,568.2,250,568.2,247.8z M27.9,465.8l1.7,1L279,228.4L25.3,39.3C26.1,182.3,27,324.1,27.9,465.8L27.9,465.8z M769.5,474.7
	V234.6H593.7c0.6,80.7,1.1,161.1,1.7,241.8L769.5,474.7z M287.5,257.4l-1.6-0.8L119,417.5h168.4L287.5,257.4z"/>
<path class="st0" d="M58.1,536.7H93c27.6,0,48.2,5.6,61.7,16.9s20.2,24,20.2,38.5s-6.9,27.4-20.8,38.5s-34.3,16.7-60.9,16.7H58.1
	V536.7z M77.7,551.4v81h1.2c14.7,0,25.6-0.6,32.9-1.6c7.4-0.9,14.5-3.2,21-6.7c6.3-3.2,11.7-7.8,15.9-13.5c3.9-5.4,6-12,6-18.7
	c0-8.5-3.2-16.3-9.3-23c-6-6.7-13.8-11.5-22.4-13.9c-8.7-2.4-20.4-3.6-35.1-3.6H77.7z"/>
<path class="st0" d="M203.2,536.7H283v15.1h-60.3v27.6H283v14.9h-60.3v38.1H283v14.9h-79.8V536.7z"/>
<path class="st0" d="M401.2,549l-15.9,9.7c-3.5-3-7.4-5.5-11.5-7.5c-3.4-1.6-8.3-2.4-14.9-2.4c-7.1,0-12.9,1.2-17.3,3.8
	c-4.4,2.4-6.5,5.6-6.5,9.5c0,3.4,2,6.4,5.8,8.9s10.3,5.4,19.6,8.3c7.4,2.3,14.6,5.1,21.6,8.5c4.6,2.3,8.9,5.2,12.7,8.7
	c3.1,2.8,5.6,6.3,7.3,10.1c1.6,3.5,2.4,7.3,2.4,11.1c0,9.1-4.4,17.1-13.1,23.4c-8.7,6.5-19.3,9.7-31.6,9.7c-12.1,0-22.6-2.6-32-7.5
	c-9.3-5.2-16.3-12.7-21.2-22.8l19.6-4.2c7.1,12.5,18.1,18.7,32.9,18.7c7.1,0,13.1-1.6,17.9-5s7.1-7.5,7.1-12.5c0-3-1.2-6-3.8-9.1
	c-2.6-3.1-5.8-5.6-9.3-7.5c-3.8-2-9.5-4.2-17.7-6.7c-6.3-2-12.6-4.3-18.7-6.9c-4.1-2-7.9-4.5-11.3-7.5c-3.2-3-5.6-5.8-6.9-8.7
	c-1.4-2.9-2.2-6.1-2.2-9.3c0-7.9,4.2-14.7,12.5-20.2c8.3-5.6,18.5-8.3,30.2-8.3c8.1,0.1,16.1,1.4,23.8,4
	C388.6,539.4,395.6,543.5,401.2,549z"/>
<path class="st0" d="M435.8,536.7h19.5v110.5h-19.5V536.7z"/>
<path class="st0" d="M633.1,554.4l-14.7,11.1c-14.7-11.1-31.8-16.7-51-16.7c-16.9,0-31,4.2-42.3,12.5c-11.3,8.3-16.9,18.7-16.9,31.2
	c0,10.9,5.4,20.8,16.3,29.6s26,13.1,45.1,13.1c28.8,0,46.8-9.5,54.2-28.8h-38.9v-15.1h61.5c0,7.5-0.6,13.7-2,18.1
	c-1.8,5.4-4.5,10.5-8.1,14.9c-4.7,5.8-10.3,10.8-16.7,14.7c-6.9,4.3-14.4,7.4-22.2,9.3c-9.3,2-18.7,2.9-28.2,2.8
	c-24.8,0-44.7-6-59.5-18.1c-14.9-11.9-22.2-25.8-22.2-41.1c0-16.3,7.5-30.2,22.8-41.5c15.1-11.5,33.5-17.1,55.2-17.1
	c11.9-0.1,23.7,1.4,35.1,4.6C611.2,540.7,621.9,546.3,633.1,554.4z"/>
<path class="st0" d="M678.3,532.2l106.6,84.2v-79.6h19.6v115.7L698,568.7v78.6h-19.6V532.2z"/>
<path class="st0" d="M929,549l-15.9,9.7c-3.5-3-7.4-5.5-11.5-7.5c-3.4-1.6-8.3-2.4-14.9-2.4c-7.1,0-12.9,1.2-17.3,3.8
	c-4.4,2.4-6.6,5.6-6.6,9.5c0,3.4,2,6.4,5.8,8.9s10.3,5.4,19.6,8.3c7.4,2.3,14.6,5.1,21.6,8.5c4.6,2.3,8.9,5.2,12.7,8.7
	c3.1,2.8,5.6,6.3,7.3,10.1c1.6,3.5,2.4,7.3,2.4,11.1c0,9.1-4.4,17.1-13.1,23.4c-8.7,6.5-19.3,9.7-31.6,9.7c-12.1,0-22.8-2.6-32-7.5
	c-9.3-5.2-16.3-12.7-21.2-22.8l19.6-4.2c7.1,12.5,18.1,18.7,32.9,18.7c7.1,0,13.1-1.6,17.9-5s7.1-7.5,7.1-12.5c0-3-1.2-6-3.8-9.1
	c-2.6-3.1-5.8-5.6-9.3-7.5c-3.8-2-9.5-4.2-17.7-6.7c-6.3-2-12.6-4.3-18.7-6.9c-4.1-2-7.9-4.5-11.3-7.5c-3.2-3-5.6-5.8-6.9-8.7
	c-1.4-2.9-2.2-6.1-2.2-9.3c0-7.9,4.2-14.7,12.5-20.2c8.3-5.6,18.5-8.3,30.2-8.3c8.1,0.1,16.1,1.4,23.8,4
	C916.4,539.4,923.3,543.5,929,549z"/>
</svg>
