<svg id="Layer_1" data-name="Layer 1" xmlns="http://www.w3.org/2000/svg" viewBox="0 0 990.4398 652.4391"><defs><style>.cls-1{fill:#fff;}</style></defs><title>damosdesigns_logo_2018_w</title><path class="cls-1" d="M872.9636,369.2631c-17.218,13.6784-33.5,26.5941-49.7607,39.5355Q790.3661,434.932,757.5487,461.09c-9.454,7.5171-14.5611,7.2448-24.87-.5q-55.1074-41.4-110.336-82.64c-1.166-.8726-2.4049-1.648-4.4157-3.0176,0,2.6069-.0046,4.51.0007,6.4135q.3234,115.4978.6376,230.9957a46.561,46.561,0,0,1-.27,6.9754c-1.0953,7.3255-6.6328,11.5343-14.1394,10.9466a12.3718,12.3718,0,0,1-11.1619-12.5464c-.1216-15.499-.0819-30.9993-.1069-46.4991-.0029-1.8051,0-3.61,0-5.81-1.9822-.118-3.5844-.2911-5.1873-.2974q-92.748-.3628-185.4958-.7822a13.4361,13.4361,0,0,0-10.17,3.9389q-30.6907,28.97-61.663,57.6418c-5.1929,4.8345-11.3568,5.944-16.3677,3.0465-4.6517-2.69-6.4028-6.9364-6.4637-12.1432-.1481-12.6646-.4935-25.3277-.5571-37.9924q-1.1087-220.7379-2.2015-441.4759c-.0329-6.2507,1.0277-11.5386,7.2481-14.5738,5.5608-2.7133,10.2018-1.0725,14.7531,2.4286,22.4415,17.2631,44.7674,34.6829,67.4449,51.6317q105.8349,79.1,211.9064,157.8828C651.27,368.2821,696.5343,401.6786,741.63,435.302c3.1231,2.3286,4.9225,1.8345,7.628-.3247q62.0863-49.55,124.2422-99.0135a24.4911,24.4911,0,0,1,16.3121-5.86q190.9968.2274,381.9937-.06c11.24-.0242,17.197,9.8167,14.19,17.0557-1.9456,4.6839-5.117,7.7243-10.2594,8.3324a51.5549,51.5549,0,0,1-5.9842.2585q-65.4993.0726-130.9984.0878c-11.98-.01-23.9607-.3648-35.9414-.5317a19.4148,19.4148,0,0,0-2.6543.29V475.0979h6.4882c57.3326,0,114.6664.1838,171.997-.1576,11.2043-.0668,16.6876,6.049,16.575,16.5743-.4384,40.9949-.1749,81.9971-.1813,122.9966-.0018,11.3893-4.3014,15.7338-15.5961,15.7363q-57.4994.0128-114.9986-.0186c-6.8859-.0074-11.749-4.1265-13.0426-10.7186-1.0688-5.447,2.2453-11.82,7.6751-13.6746a27.9457,27.9457,0,0,1,8.8374-1.1213c31.8327-.0746,63.6665-.1581,95.4979.0688,4.9922.0356,6.4433-1.1453,6.3985-6.3172-.2663-30.664-.1314-61.3315-.1314-91.9978v-5.6974H1100.1388c0,1.916.0032,3.6785,0,5.4411q-.105,48.4981-.2244,96.9964a52.1721,52.1721,0,0,1-.3392,6.9834c-.9189,6.6415-5.036,10.7575-11.6595,11.82a23.0731,23.0731,0,0,1-3.487.2076c-64.4937.4324-128.9886.745-193.48,1.38-11.8123.1163-16.21-6.1814-16.2547-16.2531-.3477-77.9944-1.1017-155.9869-1.7286-233.98C872.9566,372.3871,872.9636,371.4083,872.9636,369.2631Zm-540.28,217.9922,1.6706.989L583.732,349.805,330.0426,160.7172C330.9281,303.6924,331.8061,445.4738,332.6841,587.2553Zm741.5554,8.9073V356.035H898.5233c.573,80.7117,1.1435,161.0764,1.7165,241.7944ZM592.2545,378.7953l-1.5717-.7808L423.8249,538.8987h168.43Z" transform="translate(-304.7801 -121.4142)"/><path class="cls-1" d="M362.86,658.1428h34.9315c27.5879,0,48.2292,5.5573,61.7254,16.87s20.2444,24.0154,20.2444,38.504-6.9466,27.3894-20.84,38.504-34.336,16.6718-60.9316,16.6718H362.86ZM382.5093,672.83v80.9774H383.7c14.6871,0,25.6032-.5954,32.9467-1.5877a60.785,60.785,0,0,0,21.0383-6.7482,44.0184,44.0184,0,0,0,15.8779-13.4962,31.6284,31.6284,0,0,0,5.9542-18.6565c0-8.5344-3.1755-16.275-9.3282-23.0231a46.1406,46.1406,0,0,0-22.4276-13.8932q-13.0994-3.5725-35.13-3.5725Z" transform="translate(-304.7801 -121.4142)"/><path class="cls-1" d="M507.9451,658.1428h79.7866v15.0841H527.3955v27.5879h60.3362V715.7H527.3955v38.1071h60.3362V768.693H507.9451Z" transform="translate(-304.7801 -121.4142)"/><path class="cls-1" d="M706.0224,670.4482l-15.8779,9.7253a53.9274,53.9274,0,0,0-11.5115-7.542q-5.0611-2.3817-14.8856-2.3818c-7.1451,0-12.9008,1.1909-17.2673,3.771q-6.55,3.5727-6.55,9.5268c0,3.3741,1.9847,6.3512,5.7557,8.9313s10.3207,5.3589,19.649,8.336a153,153,0,0,1,21.6336,8.5343,52.8338,52.8338,0,0,1,12.7024,8.7329,31.3058,31.3058,0,0,1,7.3435,10.1222,27.3136,27.3136,0,0,1,2.3817,11.1146c0,9.13-4.3664,17.0688-13.0993,23.42-8.7329,6.55-19.252,9.7252-31.5574,9.7252-12.1069,0-22.6261-2.58-31.9544-7.542-9.3283-5.16-16.2749-12.7023-21.2367-22.8245l19.6489-4.168c7.1451,12.5039,18.0612,18.6566,32.9468,18.6566,7.1451,0,13.0993-1.5878,17.8627-4.9619s7.145-7.542,7.145-12.5038c0-2.9771-1.1908-5.9542-3.771-9.13a31.8191,31.8191,0,0,0-9.3282-7.542c-3.771-1.9848-9.5268-4.168-17.6642-6.7482a170.971,170.971,0,0,1-18.6566-6.9466,46.8446,46.8446,0,0,1-11.313-7.542c-3.1756-2.9771-5.5573-5.7557-6.9466-8.7328a21.4675,21.4675,0,0,1-2.1833-9.3283q0-11.9085,12.5039-20.2444c8.3359-5.5573,18.4581-8.336,30.1681-8.336a76.8233,76.8233,0,0,1,23.8169,3.97A49.0082,49.0082,0,0,1,706.0224,670.4482Z" transform="translate(-304.7801 -121.4142)"/><path class="cls-1" d="M740.5569,658.1428h19.45v110.55h-19.45v-110.55Z" transform="translate(-304.7801 -121.4142)"/><path class="cls-1" d="M937.84,675.8071l-14.6871,11.1145c-14.6871-11.1145-31.7559-16.6718-51.0079-16.6718q-25.3055,0-42.275,12.5039C818.5573,691.09,813,701.41,813,713.9142c0,10.916,5.3588,20.84,16.2749,29.5726s26,13.0993,45.0537,13.0993c28.7787,0,46.84-9.5267,54.1834-28.7788h-38.901v-15.084h61.5271c0,7.542-.5954,13.6947-1.9848,18.0612A46.6483,46.6483,0,0,1,941.016,745.67a64.0825,64.0825,0,0,1-16.6719,14.6871,75.56,75.56,0,0,1-22.2291,9.3283,128.8523,128.8523,0,0,1-28.1834,2.7787c-24.8093,0-44.6567-5.9543-59.5423-18.0612-14.8855-11.9085-22.2291-25.8017-22.2291-41.0842,0-16.2749,7.5421-30.1681,22.8246-41.4811,15.0841-11.5115,33.5421-17.0688,55.1758-17.0688a128.7349,128.7349,0,0,1,35.13,4.5649C916.0082,662.1123,926.7258,667.67,937.84,675.8071Z" transform="translate(-304.7801 -121.4142)"/><path class="cls-1" d="M983.0925,653.5779l106.5807,84.1531V658.1428h19.6489V773.8533l-106.5807-83.7562v78.5958H983.0925Z" transform="translate(-304.7801 -121.4142)"/><path class="cls-1" d="M1233.7655,670.4482l-15.8779,9.7253a53.9274,53.9274,0,0,0-11.5115-7.542q-5.0611-2.3817-14.8856-2.3818c-7.145,0-12.9008,1.1909-17.2672,3.771q-6.55,3.5727-6.55,9.5268c0,3.3741,1.9848,6.3512,5.7558,8.9313s10.3207,5.3589,19.6489,8.336a153.0017,153.0017,0,0,1,21.6337,8.5343,52.8331,52.8331,0,0,1,12.7023,8.7329,31.3046,31.3046,0,0,1,7.3436,10.1222,27.3136,27.3136,0,0,1,2.3817,11.1146c0,9.13-4.3664,17.0688-13.0993,23.42-8.7328,6.55-19.252,9.7252-31.5574,9.7252-12.1069,0-22.8245-2.58-31.9544-7.542-9.3283-5.16-16.2749-12.7023-21.2367-22.8245l19.6489-4.168c7.1451,12.5039,18.0612,18.6566,32.9468,18.6566,7.145,0,13.0993-1.5878,17.8626-4.9619s7.1451-7.542,7.1451-12.5038c0-2.9771-1.1908-5.9542-3.771-9.13a31.8183,31.8183,0,0,0-9.3283-7.542c-3.7711-1.9848-9.5267-4.168-17.6642-6.7482a170.979,170.979,0,0,1-18.6566-6.9466,46.8466,46.8466,0,0,1-11.313-7.542c-3.1756-2.9771-5.5573-5.7557-6.9466-8.7328a21.4674,21.4674,0,0,1-2.1832-9.3283q0-11.9085,12.5038-20.2444c8.336-5.5573,18.4581-8.336,30.1681-8.336a76.8229,76.8229,0,0,1,23.8169,3.97A49.0082,49.0082,0,0,1,1233.7655,670.4482Z" transform="translate(-304.7801 -121.4142)"/></svg>