<?xml version="1.0" encoding="utf-8"?>
<!-- Generator: Adobe Illustrator 22.1.0, SVG Export Plug-In . SVG Version: 6.00 Build 0)  -->
<svg version="1.1" id="Layer_1" xmlns="http://www.w3.org/2000/svg" xmlns:xlink="http://www.w3.org/1999/xlink" x="0px" y="0px"
	 viewBox="0 0 519.3 365.3" style="enable-background:new 0 0 519.3 365.3;" xml:space="preserve">
<style type="text/css">
	.st0{fill:none;stroke:#000000;stroke-width:12.5575;stroke-linejoin:round;stroke-miterlimit:10;}
	.st1{fill:none;stroke:#000000;stroke-width:12.5575;stroke-linecap:round;stroke-linejoin:round;stroke-miterlimit:10;}
	.st2{fill:none;stroke:#000000;stroke-width:12.5575;stroke-miterlimit:10;}
</style>
<g>
	<line class="st0" x1="303.1" y1="124.3" x2="406.9" y2="124.3"/>
	<line class="st1" x1="500.5" y1="196.8" x2="405.3" y2="196.8"/>
	<path class="st1" d="M232.8,179.6l69.5-55.3c0,0,0,0,0,0c0.2,15.9,1,134,1,134s66.1-0.8,99.6-0.8c0.8-26,0.1-52,0.4-78.1
		c0,0-0.5-39.9-0.5-55c30.1,0,63.7,0,93.7,0"/>
	<polyline class="st1" points="500.7,196.9 500.7,261.6 441.5,261.6 	"/>
	<path class="st1" d="M162.4,261.7c-0.2-44.4-0.2-89.6-0.4-134.3c-6.4,6.1,0,0,0,0c-19,16.2-35.8,33.8-54.2,50.5
		c-7.5,7.5-15.1,15.1-22.6,22.6c-22.6,20.9-43.5,41-65.5,61.2c0-5.6,0,0,0,0c-0.6-80.5-1.5-161.7-1.4-241.8c4.1,3.1,0,0.2,0,0
		c25,19.8,50.2,38.2,77.8,58.3c24.3,17.6,44.4,34.3,69.5,51.9c23.4,16.7,66.4,49.5,66.4,49.5"/>
	<line class="st2" x1="162.3" y1="229" x2="53.3" y2="228.7"/>
</g>
<g>
	<path d="M29.4,280.8H47c13.9,0,24.3,2.8,31.1,8.5c6.8,5.7,10.2,12.1,10.2,19.4c0,7.3-3.5,13.8-10.5,19.4c-7,5.6-17.3,8.4-30.7,8.4
		H29.4V280.8z M39.3,288.2V329h0.6c7.4,0,12.9-0.3,16.6-0.8c3.7-0.5,7.3-1.6,10.6-3.4c3.3-1.7,6-4,8-6.8c2-2.8,3-6,3-9.4
		c0-4.3-1.6-8.2-4.7-11.6c-3.2-3.5-6.9-5.8-11.3-7c-4.4-1.2-10.3-1.8-17.7-1.8L39.3,288.2L39.3,288.2z"/>
	<path d="M102.5,280.8h40.2v7.6h-30.4v13.9h30.4v7.5h-30.4V329h30.4v7.5h-40.2C102.5,336.5,102.5,280.8,102.5,280.8z"/>
	<path d="M202.3,287l-8,4.9c-2.1-1.7-4-3-5.8-3.8c-1.7-0.8-4.2-1.2-7.5-1.2c-3.6,0-6.5,0.6-8.7,1.9c-2.2,1.2-3.3,2.8-3.3,4.8
		c0,1.7,1,3.2,2.9,4.5c1.9,1.3,5.2,2.7,9.9,4.2c4.7,1.5,8.3,3,10.9,4.3c2.6,1.3,4.7,2.8,6.4,4.4c1.7,1.6,2.9,3.3,3.7,5.1
		c0.8,1.8,1.2,3.7,1.2,5.6c0,4.6-2.2,8.6-6.6,11.8c-4.4,3.3-9.7,4.9-15.9,4.9c-6.1,0-11.4-1.3-16.1-3.8c-4.7-2.6-8.2-6.4-10.7-11.5
		l9.9-2.1c3.6,6.3,9.1,9.4,16.6,9.4c3.6,0,6.6-0.8,9-2.5c2.4-1.7,3.6-3.8,3.6-6.3c0-1.5-0.6-3-1.9-4.6c-1.3-1.5-2.8-2.8-4.7-3.8
		c-1.9-1-4.8-2.1-8.9-3.4c-4.1-1.3-7.2-2.5-9.4-3.5c-2.2-1.1-4.1-2.3-5.7-3.8c-1.6-1.5-2.8-2.9-3.5-4.4c-0.7-1.5-1.1-3-1.1-4.7
		c0-4,2.1-7.4,6.3-10.2c4.2-2.8,9.3-4.2,15.2-4.2c4,0,8,0.7,12,2C196.2,282.3,199.6,284.3,202.3,287z"/>
	<path d="M219.7,280.8h9.8v55.7h-9.8L219.7,280.8L219.7,280.8z"/>
	<path d="M319.1,289.7l-7.4,5.6c-7.4-5.6-16-8.4-25.7-8.4c-8.5,0-15.6,2.1-21.3,6.3c-5.7,4.2-8.5,9.4-8.5,15.7
		c0,5.5,2.7,10.5,8.2,14.9c5.5,4.4,13.1,6.6,22.7,6.6c14.5,0,23.6-4.8,27.3-14.5h-19.6v-7.6h31c0,3.8-0.3,6.9-1,9.1
		c-0.7,2.3-2,4.8-4.1,7.5c-2.1,2.7-4.9,5.2-8.4,7.4c-3.5,2.2-7.2,3.7-11.2,4.7c-4,0.9-8.7,1.4-14.2,1.4c-12.5,0-22.5-3-30-9.1
		c-7.5-6-11.2-13-11.2-20.7c0-8.2,3.8-15.2,11.5-20.9c7.6-5.8,16.9-8.6,27.8-8.6c6.5,0,12.4,0.8,17.7,2.3
		C308.1,282.8,313.5,285.6,319.1,289.7z"/>
	<path d="M341.9,278.5l53.7,42.4v-40.1h9.9v58.3l-53.7-42.2v39.6h-9.9V278.5z"/>
	<path d="M468.2,287l-8,4.9c-2.1-1.7-4-3-5.8-3.8c-1.7-0.8-4.2-1.2-7.5-1.2c-3.6,0-6.5,0.6-8.7,1.9c-2.2,1.2-3.3,2.8-3.3,4.8
		c0,1.7,1,3.2,2.9,4.5c1.9,1.3,5.2,2.7,9.9,4.2c4.7,1.5,8.3,3,10.9,4.3c2.6,1.3,4.7,2.8,6.4,4.4c1.7,1.6,2.9,3.3,3.7,5.1
		c0.8,1.8,1.2,3.7,1.2,5.6c0,4.6-2.2,8.6-6.6,11.8c-4.4,3.3-9.7,4.9-15.9,4.9c-6.1,0-11.5-1.3-16.1-3.8c-4.7-2.6-8.2-6.4-10.7-11.5
		l9.9-2.1c3.6,6.3,9.1,9.4,16.6,9.4c3.6,0,6.6-0.8,9-2.5c2.4-1.7,3.6-3.8,3.6-6.3c0-1.5-0.6-3-1.9-4.6c-1.3-1.5-2.8-2.8-4.7-3.8
		s-4.8-2.1-8.9-3.4c-4.1-1.3-7.2-2.5-9.4-3.5c-2.2-1.1-4.1-2.3-5.7-3.8c-1.6-1.5-2.8-2.9-3.5-4.4c-0.7-1.5-1.1-3-1.1-4.7
		c0-4,2.1-7.4,6.3-10.2c4.2-2.8,9.3-4.2,15.2-4.2c4,0,8,0.7,12,2C462.1,282.3,465.5,284.3,468.2,287z"/>
</g>
</svg>
